<?xml version="1.0" standalone="no"?>
<!DOCTYPE svg PUBLIC "-//W3C//DTD SVG 20010904//EN"
 "http://www.w3.org/TR/2001/REC-SVG-20010904/DTD/svg10.dtd">
<svg version="1.0" xmlns="http://www.w3.org/2000/svg"
 width="1024.000000pt" height="1024.000000pt" viewBox="0 0 1024.000000 1024.000000"
 preserveAspectRatio="xMidYMid meet">

<g transform="translate(0.000000,1024.000000) scale(0.100000,-0.100000)"
fill="#000000" stroke="none">
<path d="M0 5120 l0 -5120 5120 0 5120 0 0 5120 0 5120 -5120 0 -5120 0 0
-5120z m5305 3990 c348 -22 854 -142 1197 -284 462 -192 775 -385 1138 -702
316 -276 594 -646 843 -1124 201 -386 346 -858 402 -1314 17 -138 20 -510 5
-656 -34 -330 -129 -722 -234 -968 -13 -31 -34 -83 -46 -115 -12 -31 -27 -60
-33 -64 -6 -4 -8 0 -4 10 3 8 2 28 -3 44 -5 15 -9 20 -9 11 -1 -12 -9 -18 -26
-18 -27 0 -32 9 -13 28 9 9 9 12 0 12 -7 0 -12 -4 -12 -10 0 -5 -5 -10 -10
-10 -6 0 -4 13 5 30 9 17 13 30 10 30 -3 0 -1 9 5 20 6 11 8 20 5 20 -11 0
-46 -93 -41 -107 3 -8 2 -11 -4 -8 -5 3 -19 -18 -31 -47 -94 -224 -324 -606
-478 -793 -113 -138 -256 -298 -303 -340 -344 -307 -490 -421 -716 -558 -282
-170 -703 -345 -1007 -418 -93 -22 -248 -49 -253 -44 -3 3 255 86 361 115 82
22 314 104 452 160 217 86 546 266 720 393 219 160 438 358 575 522 353 422
613 872 771 1335 142 413 186 695 176 1133 -7 357 -46 591 -157 950 -107 350
-297 738 -509 1041 -114 163 -357 450 -467 553 -101 93 -272 233 -404 329
-400 291 -1057 552 -1595 633 -306 46 -444 56 -629 43 -326 -24 -557 -63 -823
-142 -630 -187 -1107 -456 -1553 -874 -180 -169 -407 -450 -548 -678 -143
-232 -170 -284 -307 -603 -44 -103 -143 -394 -169 -500 -58 -234 -116 -670
-116 -870 0 -206 77 -679 147 -905 79 -254 199 -529 340 -780 83 -149 274
-441 366 -560 36 -47 64 -86 62 -88 -4 -4 -69 67 -131 143 -150 184 -418 637
-509 860 -37 91 -52 118 -43 78 4 -15 2 -20 -7 -17 -7 3 -16 1 -20 -5 -4 -7 3
-11 18 -11 14 0 27 -6 30 -14 4 -10 0 -12 -16 -8 -37 9 -48 22 -36 44 6 10 8
24 5 31 -2 7 -5 4 -5 -5 -1 -11 -9 -18 -20 -18 -11 0 -22 -6 -24 -12 -4 -8 -6
-7 -6 3 -1 9 6 22 14 29 17 14 21 35 5 25 -6 -4 -18 -1 -27 6 -13 11 -17 10
-28 -4 -11 -16 -20 2 -64 135 -64 192 -134 483 -158 653 -26 185 -26 735 0
910 36 243 122 587 202 807 151 421 421 890 694 1208 158 184 388 407 538 522
642 492 1506 798 2303 816 30 1 123 -3 205 -8z m165 -259 c86 -22 170 -58 170
-73 0 -4 7 -8 15 -8 14 0 20 -12 16 -34 -1 -5 5 -6 13 -3 10 4 13 1 9 -9 -3
-7 0 -14 6 -14 6 0 11 5 11 12 0 6 3 8 6 5 4 -4 1 -13 -6 -22 -10 -12 -10 -15
1 -16 8 0 5 -4 -6 -9 -16 -7 -16 -9 -4 -9 9 -1 19 -7 22 -15 5 -13 1 -12 -29
0 -21 9 -34 10 -34 4 0 -7 -6 -7 -20 0 -16 9 -18 8 -14 -5 3 -8 10 -12 15 -9
5 3 9 -1 9 -8 0 -10 2 -10 8 -1 4 7 13 9 21 4 10 -6 9 -10 -4 -15 -9 -3 -14
-10 -10 -15 10 -17 -12 -21 -25 -6 -11 14 -15 14 -31 -1 -11 -10 -19 -12 -19
-6 0 7 -4 12 -10 12 -5 0 -7 -7 -4 -15 4 -8 3 -15 -1 -15 -12 0 -40 32 -67 79
-36 61 -36 45 1 -27 16 -31 46 -73 66 -92 20 -19 41 -43 47 -54 9 -17 7 -18
-18 -12 -16 4 -37 9 -46 12 -15 4 -17 -4 -20 -58 l-3 -63 -35 70 -35 70 -79 0
c-46 0 -81 4 -83 10 -2 6 13 26 32 45 19 19 35 39 35 46 0 6 -22 35 -48 63
l-48 51 -82 0 c-73 0 -86 -3 -106 -23 -13 -13 -29 -40 -37 -60 -14 -40 -28
-43 -44 -10 -29 58 -68 67 -141 34 -47 -21 -122 -104 -131 -144 -7 -35 -23
-45 -30 -18 -7 28 -11 27 -49 -16 -69 -79 -22 46 64 171 34 49 62 94 62 100 0
5 -10 -4 -22 -21 -55 -73 -63 -83 -72 -83 -5 0 -1 9 8 19 11 12 14 21 7 26 -6
3 -11 2 -11 -3 0 -18 -32 -23 -44 -7 -10 14 -14 14 -33 -4 l-21 -20 -6 25 c-4
14 -4 28 -2 33 3 4 8 23 11 42 7 40 7 40 34 42 11 1 21 5 21 10 0 5 7 7 15 3
8 -3 15 -2 15 2 0 6 38 22 95 38 11 3 45 8 75 11 30 2 60 6 65 8 6 3 114 3
240 1 194 -3 243 -7 315 -25z m-883 -86 c0 -8 -4 -15 -9 -15 -10 0 -11 14 -1
23 9 10 10 9 10 -8z m-7 -35 c0 -5 -4 -10 -10 -10 -5 0 -10 5 -10 10 0 6 5 10
10 10 6 0 10 -4 10 -10z m-13 -41 c1 -12 1 -20 0 -18 -2 2 -9 12 -16 22 -11
14 -11 17 1 17 7 0 14 -10 15 -21z m73 -9 c0 -5 -5 -10 -11 -10 -5 0 -7 5 -4
10 3 6 8 10 11 10 2 0 4 -4 4 -10z m617 -5 c2 -6 -10 -18 -26 -28 -23 -13 -40
-16 -73 -10 -24 4 -46 6 -50 5 -5 -1 -8 3 -8 9 0 6 -9 1 -21 -12 l-20 -24 11
23 c13 27 54 45 83 36 12 -4 17 -2 13 4 -4 7 10 10 41 9 25 -1 48 -7 50 -12z
m383 -95 c0 -5 -2 -10 -4 -10 -3 0 -8 5 -11 10 -3 6 -1 10 4 10 6 0 11 -4 11
-10z m-33 -15 c8 -9 13 -19 10 -22 -6 -5 -37 21 -37 31 0 10 11 6 27 -9z
m-547 -56 c13 -28 31 -54 40 -59 9 -5 42 3 89 22 69 27 101 30 101 10 0 -8
-29 -50 -81 -114 l-22 -27 53 -71 c60 -81 90 -100 170 -107 l56 -5 36 53 c19
30 43 69 54 87 20 34 39 43 30 15 -22 -79 -12 -142 14 -92 24 44 19 9 -10 -70
-17 -45 -30 -90 -30 -100 0 -10 -8 -29 -18 -41 -14 -17 -22 -20 -42 -12 -17 6
-41 5 -75 -4 -27 -8 -66 -17 -85 -20 l-35 -7 38 36 c20 19 37 44 37 54 0 36
-79 131 -98 119 -5 -3 -37 6 -71 19 -33 14 -69 25 -80 25 -23 0 -48 -29 -76
-88 -31 -64 -32 -62 -51 83 -4 28 -11 55 -16 61 -5 7 -38 20 -73 29 -37 10
-65 23 -65 31 0 11 54 36 128 58 21 7 22 13 21 76 -1 37 2 73 5 79 14 23 33 9
56 -40z m-350 -129 c0 -38 1 -70 3 -70 2 0 25 7 51 16 26 9 50 13 53 10 4 -4
-15 -28 -41 -55 -55 -56 -55 -59 1 -156 42 -73 71 -105 93 -105 10 0 43 13 75
29 l57 29 -6 -36 c-4 -21 -10 -56 -13 -78 l-5 -42 65 -31 c43 -21 89 -34 129
-37 l63 -6 40 41 c45 48 54 50 47 16 -6 -34 20 -42 65 -21 46 22 53 14 14 -13
-17 -12 -52 -25 -78 -28 -27 -3 -56 -12 -66 -21 -17 -16 -17 -17 -1 -23 13 -4
-1 -12 -46 -27 -35 -12 -68 -22 -72 -22 -19 0 -5 19 32 44 50 33 51 46 2 46
-20 0 -69 9 -107 20 -38 11 -73 20 -77 20 -14 0 -8 -26 15 -73 l24 -46 -26 19
c-14 11 -52 40 -84 65 -32 24 -81 53 -108 62 -28 10 -65 31 -82 46 l-32 28 58
-5 c53 -4 57 -3 57 17 0 36 -41 97 -97 144 l-52 45 -13 -46 c-7 -25 -15 -46
-19 -46 -4 0 -11 21 -14 48 -3 26 -10 66 -15 89 -14 60 -12 73 9 73 25 0 35
15 56 80 21 65 23 70 36 70 5 0 9 -31 9 -70z m1433 -131 c105 -33 212 -76 304
-121 l141 -70 29 19 c36 26 196 98 248 113 66 18 265 25 311 10 138 -45 493
-390 612 -595 34 -58 38 -162 6 -168 -5 -1 -8 -6 -6 -10 1 -4 -7 -3 -19 4 -12
6 -19 7 -15 1 3 -5 -1 -15 -10 -22 -12 -11 -12 -15 -2 -23 9 -6 7 -7 -7 -2
-29 11 -79 13 -85 5 -3 -4 -15 -10 -27 -14 -17 -6 -23 -3 -23 9 0 9 4 14 9 10
5 -3 12 -2 15 3 2 4 -3 8 -13 9 -15 1 -20 -11 -30 -69 -12 -75 -31 -118 -81
-186 -19 -27 -37 -42 -45 -38 -10 3 -12 0 -8 -11 4 -9 2 -14 -3 -10 -14 8 -93
-29 -100 -47 -3 -8 -19 -20 -35 -26 -16 -7 -26 -16 -23 -21 3 -5 -2 -6 -10 -3
-8 3 -35 -2 -60 -10 -60 -20 -151 -20 -229 0 -73 19 -105 34 -174 86 -56 41
-74 48 -52 21 13 -16 12 -16 -10 -1 -27 19 -83 99 -104 150 -8 20 -20 61 -27
92 -9 47 -16 57 -36 62 -14 4 -23 12 -21 18 6 14 -35 16 -45 2 -4 -6 -14 -4
-26 8 -25 22 -116 31 -108 10 7 -17 -10 -19 -17 -1 -4 9 -8 8 -16 -3 -5 -8
-13 -11 -17 -7 -4 4 1 14 12 22 17 13 17 14 2 15 -9 0 -20 -5 -23 -10 -4 -7
-22 -2 -47 12 l-40 23 6 53 c8 64 44 156 92 235 29 47 33 59 22 70 -19 18
-177 89 -283 127 -49 18 -99 36 -111 40 -20 8 -20 10 -8 87 7 43 13 106 13
141 1 34 4 62 7 62 3 0 79 -23 167 -51z m-1873 -22 c0 -29 7 -87 15 -129 8
-43 12 -83 10 -90 -3 -7 -51 -31 -108 -52 -56 -22 -146 -59 -200 -83 -95 -42
-117 -49 -105 -37 3 3 -31 41 -75 85 -45 44 -83 75 -85 70 -2 -6 8 -22 23 -35
21 -19 25 -30 19 -48 -6 -19 -5 -21 7 -11 12 10 17 8 28 -10 11 -16 11 -22 1
-25 -10 -4 -10 -6 0 -12 7 -4 -6 -7 -29 -6 -37 1 -39 2 -18 13 17 9 18 12 5
13 -9 0 -23 -7 -32 -15 -8 -8 -20 -13 -28 -12 -7 2 -10 2 -5 0 13 -8 -3 -22
-18 -16 -18 6 -20 29 -2 36 7 4 8 6 1 6 -12 1 -50 -49 -46 -61 1 -4 -5 -5 -13
-2 -8 4 -15 10 -15 16 0 5 4 7 9 4 4 -3 14 7 20 22 l13 27 -22 -22 c-22 -24
-40 -30 -40 -13 0 6 -5 10 -11 10 -8 0 -7 -5 1 -15 10 -12 10 -19 2 -27 -9 -9
-12 -8 -12 5 0 15 -3 16 -21 6 -17 -9 -19 -13 -8 -20 19 -12 2 -11 -20 1 -10
5 -34 10 -54 12 -20 1 -34 5 -31 9 2 4 -9 13 -26 21 -17 7 -28 18 -26 25 3 7
-1 10 -10 6 -9 -3 -29 4 -45 16 -16 12 -29 17 -29 11 0 -6 -5 -8 -11 -5 -6 4
-8 14 -4 22 5 14 3 14 -12 2 -10 -7 -27 -22 -39 -33 -20 -21 -20 -21 -1 -31
40 -20 31 -35 -20 -35 -62 0 -90 -16 -117 -64 -12 -21 -25 -39 -30 -40 -5 0
-16 18 -23 42 -12 34 -19 42 -39 42 -14 0 -34 -5 -45 -11 -11 -5 -29 -9 -41
-7 l-20 3 21 27 c36 45 127 87 246 114 81 18 94 22 50 18 -33 -4 -70 -8 -82
-9 -13 -1 -26 -5 -30 -8 -12 -13 -33 -7 -33 8 0 11 -7 14 -25 9 -29 -7 -31 -2
-9 20 13 13 13 16 1 16 -8 0 -22 -9 -32 -20 -10 -11 -25 -20 -33 -20 -13 0
-13 2 1 18 13 14 13 20 3 34 -12 16 -13 16 -26 -3 -19 -25 -34 -25 -20 0 12
24 13 34 1 27 -5 -4 -12 0 -15 6 -3 7 -3 2 0 -11 4 -16 3 -21 -5 -17 -18 12
-13 29 17 54 15 13 21 21 15 17 -8 -4 -13 0 -13 9 0 9 6 13 15 10 9 -4 19 3
26 20 7 14 16 23 21 20 4 -3 11 2 14 10 3 9 10 14 14 11 4 -3 10 2 14 10 3 8
12 15 21 15 8 0 15 4 15 8 0 10 -1 10 120 18 149 9 330 -41 440 -121 26 -19
51 -35 55 -35 4 0 16 11 27 25 26 33 155 94 293 138 61 20 144 47 185 60 41
13 78 22 83 20 4 -2 7 -28 7 -56z m-1317 -122 c-3 -9 -8 -14 -10 -11 -3 3 -2
9 2 15 9 16 15 13 8 -4z m-1 -137 c-7 -7 -12 -21 -12 -32 -1 -19 -2 -19 -11
-4 -10 18 5 47 26 48 5 0 4 -5 -3 -12z m-62 -32 c0 -2 -7 -7 -16 -10 -8 -3
-12 -2 -9 4 6 10 25 14 25 6z m466 -128 c57 -29 65 -31 88 -19 34 19 49 10 65
-35 7 -22 29 -71 47 -109 42 -87 52 -180 19 -180 -14 0 -25 13 -38 40 -38 87
-40 90 -82 93 -22 2 -63 -1 -90 -7 -46 -10 -55 -18 -103 -80 -28 -38 -52 -72
-52 -76 0 -4 23 -39 52 -78 55 -73 121 -117 180 -117 46 0 127 99 128 157 1
13 5 10 17 -11 l16 -30 18 23 c11 13 19 19 19 13 0 -15 -62 -154 -82 -184 -11
-16 -18 -44 -18 -72 0 -39 -3 -46 -19 -46 -26 0 -37 18 -17 26 21 8 20 40 -1
49 -15 6 -104 7 -110 1 -8 -7 12 -46 23 -46 8 0 14 -4 14 -8 0 -10 -102 -43
-109 -36 -3 3 9 19 27 36 25 22 32 35 28 51 -9 35 -70 114 -84 109 -8 -2 -45
10 -83 28 -38 17 -76 29 -84 26 -9 -3 -33 -33 -54 -68 -45 -70 -45 -70 -56 54
-4 37 -12 71 -18 76 -7 5 -43 19 -80 32 l-68 22 -44 -36 c-47 -39 -60 -64 -51
-100 7 -28 80 -142 113 -178 l25 -26 -21 -11 c-34 -19 -25 -46 23 -71 61 -31
76 -23 76 39 0 44 -3 50 -23 53 -21 3 -19 6 19 34 l42 32 -5 -62 -5 -61 78
-28 c44 -15 96 -27 116 -27 27 0 36 -4 32 -13 -4 -11 -21 -11 -97 4 -126 25
-147 24 -147 -2 0 -11 9 -34 21 -50 11 -16 17 -29 13 -29 -4 0 -39 24 -78 54
-39 30 -87 62 -106 71 -45 23 -90 56 -90 67 0 5 13 2 30 -7 30 -15 72 -20 83
-9 11 11 -63 143 -95 169 -41 34 -56 31 -77 -15 -20 -46 -31 -43 -31 10 0 21
-10 61 -21 89 -23 55 -22 63 13 66 19 1 28 16 53 83 16 44 34 84 38 88 4 5 5
-29 1 -74 l-7 -82 79 30 c43 16 112 40 152 52 l74 23 -6 73 c-6 60 -4 72 8 72
20 0 43 -24 66 -70 11 -21 24 -41 29 -45 6 -3 48 4 95 16 74 18 91 27 121 60
49 55 46 76 -24 142 -54 52 -63 67 -38 67 6 0 38 -14 73 -32z m-526 15 c0 -5
-9 -19 -20 -33 -11 -14 -20 -33 -20 -44 0 -16 5 -17 37 -11 l37 7 -56 -63
c-30 -35 -70 -72 -89 -82 -19 -10 -46 -31 -61 -45 -16 -14 -28 -23 -28 -20 0
18 33 92 65 148 53 89 136 177 135 143z m840 -13 c8 -5 11 -10 5 -10 -5 0 -17
5 -25 10 -8 5 -10 10 -5 10 6 0 17 -5 25 -10z m-120 -40 c-18 -12 -30 -13 -30
-2 0 4 10 9 22 9 18 2 20 0 8 -7z m810 -319 c75 -35 145 -104 182 -179 30 -60
33 -75 33 -153 0 -81 -2 -90 -30 -130 -17 -24 -71 -79 -120 -122 -113 -100
-125 -117 -125 -187 0 -69 28 -114 101 -160 49 -32 52 -33 65 -15 8 10 14 30
14 43 0 20 3 22 14 13 10 -8 105 -9 357 -4 387 8 430 8 651 2 152 -4 158 -3
180 18 12 12 19 25 17 28 -16 15 -192 26 -524 31 -402 7 -610 -3 -669 -31 -34
-16 -37 -16 -68 2 -29 17 -33 24 -33 63 0 39 4 46 28 58 120 57 976 71 1307
21 75 -11 100 -33 100 -84 0 -27 -8 -39 -40 -65 -34 -27 -40 -37 -40 -68 0
-46 16 -75 25 -49 4 9 34 33 66 53 141 85 133 207 -23 325 -91 70 -132 121
-153 192 -37 125 -2 233 105 326 87 76 137 96 235 95 129 -1 232 -51 350 -169
80 -80 124 -159 156 -280 18 -68 21 -110 22 -270 0 -218 -18 -363 -78 -608
-113 -462 -400 -1106 -687 -1538 -104 -157 -143 -207 -154 -196 -4 4 48 115
114 247 164 325 329 690 400 890 17 47 56 153 86 237 109 299 175 629 183 913
6 209 -5 288 -55 394 -63 135 -211 246 -328 246 -130 0 -224 -88 -224 -210 0
-74 28 -119 123 -199 107 -90 141 -148 141 -242 0 -123 -66 -215 -186 -260
-32 -12 -61 -25 -64 -30 -9 -15 25 -66 72 -108 42 -37 145 -81 189 -81 8 0 16
-4 19 -9 7 -10 -36 -290 -70 -461 -44 -220 -127 -492 -209 -685 -68 -163 -207
-435 -218 -428 -6 3 -5 8 0 12 17 11 34 51 29 69 -2 9 -7 29 -10 44 -5 20 -11
26 -23 21 -14 -5 -15 -1 -10 26 5 26 4 32 -7 28 -8 -3 -13 1 -12 11 0 9 -6 17
-14 17 -9 0 -14 8 -12 20 2 16 1 17 -7 5 -9 -13 -12 -13 -23 3 -8 11 -27 19
-46 19 -20 1 -32 6 -32 15 0 7 5 13 10 13 6 0 10 5 10 10 0 23 -20 8 -27 -21
l-8 -30 -43 39 c-39 36 -47 40 -43 19 1 -5 -4 -7 -11 -5 -7 3 -12 16 -11 29 1
15 0 17 -3 7 -3 -10 -15 -18 -26 -18 -11 0 -27 -8 -34 -17 -13 -17 -14 -17 -7
2 l6 20 -23 -20 c-13 -11 -20 -14 -16 -7 10 17 -25 58 -46 54 -21 -4 -23 9 -6
26 23 23 -3 12 -30 -13 -15 -14 -31 -24 -37 -22 -14 5 -19 37 -6 37 6 0 8 -7
5 -15 -4 -8 -2 -15 4 -15 21 0 19 27 -4 47 -22 20 -24 20 -24 3 0 -22 -16 -35
-24 -21 -4 5 -2 12 4 16 19 12 -13 33 -36 24 -25 -9 -35 -3 -27 17 7 20 -14
17 -27 -3 -8 -15 -9 -13 -4 10 4 17 2 27 -5 27 -6 0 -10 -3 -10 -7 4 -24 -2
-43 -12 -37 -6 3 -9 14 -6 24 2 9 -4 22 -14 28 -15 9 -20 8 -28 -6 -14 -24
-25 -8 -11 17 6 13 16 19 23 15 9 -5 9 -4 0 6 -10 11 -16 9 -32 -11 -11 -13
-18 -30 -15 -38 4 -12 2 -12 -12 0 -10 8 -12 15 -5 17 21 7 11 23 -11 18 -13
-3 -18 -3 -12 0 7 3 10 14 7 24 -4 16 -13 19 -52 17 -43 -2 -46 -4 -44 -27 2
-21 1 -22 -7 -8 -13 21 -3 48 19 49 14 1 13 2 -2 6 -9 2 -14 9 -11 15 4 7 2 8
-4 4 -7 -4 -12 -14 -12 -22 0 -9 -6 -14 -12 -11 -7 2 -12 13 -11 23 2 16 1 15
-9 -3 -6 -13 -15 -23 -20 -23 -5 0 -7 4 -3 9 3 5 1 12 -5 16 -5 3 -10 2 -10
-4 0 -5 -6 -16 -13 -23 -7 -7 -18 -21 -23 -31 -9 -16 -11 -14 -11 12 0 16 4
28 9 25 14 -9 9 13 -7 26 -12 10 -16 9 -21 -4 -3 -9 -4 -22 -1 -30 3 -8 0 -19
-7 -25 -14 -11 -26 -5 -26 13 0 6 5 4 10 -4 7 -11 10 -12 10 -2 0 32 -70 66
-85 42 -11 -18 -26 1 -19 23 6 21 6 21 -9 3 -8 -12 -20 -17 -31 -13 -9 4 -16
4 -16 1 0 -2 10 -9 23 -14 16 -7 18 -9 5 -9 -17 -1 -17 -3 -1 -35 10 -22 21
-32 30 -29 12 5 12 7 1 14 -9 6 -6 8 9 6 l23 -1 -21 -22 c-23 -25 -21 -40 16
-114 13 -25 26 -56 29 -70 8 -31 -56 103 -89 185 -83 210 -147 429 -210 719
-26 123 -57 344 -50 356 3 4 29 14 57 21 72 17 118 37 146 62 45 41 81 137 51
137 -24 0 -123 56 -145 83 -77 91 -99 210 -56 294 12 23 67 86 121 140 112
111 131 142 131 212 0 41 -6 57 -33 93 -61 79 -141 115 -231 103 -102 -13
-209 -98 -276 -220 -61 -110 -74 -180 -74 -385 -1 -503 157 -1015 589 -1905
48 -99 90 -184 93 -190 3 -5 -1 -5 -8 2 -7 6 -18 22 -24 35 -7 12 -18 22 -26
20 -7 -2 -10 3 -7 12 4 9 3 15 -1 15 -19 -3 -23 2 -13 14 8 10 5 26 -14 63
-23 44 -31 30 -10 -18 4 -11 3 -18 -4 -18 -6 0 -11 7 -11 15 0 8 -7 15 -15 15
-21 0 -19 -10 8 -50 39 -57 61 -96 50 -85 -25 24 -106 149 -162 250 -55 99
-221 430 -221 442 0 2 -23 57 -51 121 -107 245 -195 517 -248 772 -47 223 -52
262 -58 447 -9 258 18 390 106 525 63 97 105 138 187 184 138 77 264 93 364
45z m1363 -48 l28 -14 -25 -20 c-14 -11 -38 -40 -52 -65 -14 -24 -29 -44 -33
-44 -4 0 -41 11 -81 25 -40 14 -81 25 -91 25 -40 0 -24 19 44 53 40 19 81 42
92 51 22 17 71 13 118 -11z m-1019 -28 c48 -25 100 -45 115 -45 14 -1 -21 -14
-79 -29 -58 -15 -113 -31 -122 -35 -13 -6 -22 2 -39 36 -11 24 -31 53 -42 65
-23 26 -24 26 23 40 51 16 48 17 144 -32z m958 -354 c2 -17 1 -28 -3 -26 -4 3
-9 18 -11 34 -2 17 -1 28 3 26 4 -3 9 -18 11 -34z m-1492 -16 c0 -6 -149 -125
-157 -125 -13 0 34 45 91 87 58 43 66 47 66 38z m-750 -19 c-18 -17 -226 -86
-258 -86 -13 0 -20 4 -17 10 11 18 79 43 110 41 17 -1 44 3 60 8 l30 9 -27 1
c-49 2 -30 20 25 24 28 2 61 4 72 5 17 2 17 0 5 -12z m2786 -87 c8 -13 -21 1
-51 26 -19 15 -18 15 12 1 17 -9 35 -21 39 -27z m49 -39 c10 -11 16 -20 13
-20 -3 0 -13 9 -23 20 -10 11 -16 20 -13 20 3 0 13 -9 23 -20z m1724 -437 c22
-65 47 -147 55 -182 14 -59 14 -62 -2 -48 -23 19 -52 29 -52 17 0 -6 6 -10 13
-10 8 0 22 -9 31 -19 17 -18 15 -19 -58 -20 -76 -1 -201 -22 -214 -36 -4 -5 4
-5 18 -1 14 4 72 10 130 13 231 12 480 -79 629 -231 51 -51 54 -58 53 -103 0
-40 -12 -64 -25 -51 -10 9 -36 -33 -31 -49 4 -13 3 -15 -4 -4 -7 9 -12 10 -16
2 -10 -16 -26 -14 -26 4 0 8 -4 15 -9 15 -5 0 -7 -8 -4 -19 3 -10 -2 -21 -10
-24 -8 -3 -14 0 -13 6 0 7 -3 12 -9 12 -5 0 -9 -4 -7 -8 1 -5 -10 -8 -25 -7
-50 4 -60 1 -40 -11 9 -5 22 -7 29 -3 7 4 8 3 4 -4 -4 -7 -18 -9 -32 -6 -18 5
-24 3 -22 -7 2 -8 -3 -13 -10 -11 -9 1 -10 -3 -3 -15 12 -21 26 -94 21 -108
-2 -5 -2 -38 -1 -72 1 -35 -2 -63 -7 -63 -10 0 -42 35 -65 73 -27 42 -79 37
-175 -14 -43 -23 -80 -45 -84 -48 -9 -8 47 -94 88 -135 34 -34 98 -65 134 -66
30 0 99 34 122 61 21 25 38 24 38 -2 0 -30 -29 -75 -56 -88 -17 -7 -21 -16
-17 -33 3 -16 2 -19 -4 -10 -13 17 -83 28 -83 13 0 -6 -7 -11 -15 -11 -8 0
-15 -4 -15 -9 0 -6 -15 -7 -34 -4 -18 3 -43 0 -54 -6 -38 -20 -127 -23 -187
-5 -62 18 -96 13 -125 -16 -32 -32 -25 -67 23 -115 23 -23 49 -44 57 -47 8 -3
12 -9 8 -13 -3 -4 -32 0 -62 9 -45 13 -59 14 -76 4 -18 -11 -23 -9 -50 24 -17
21 -45 44 -63 53 -29 14 -74 72 -63 82 2 2 13 -1 24 -8 45 -28 166 39 202 113
22 45 26 101 10 142 -9 23 -15 26 -62 26 -117 0 -159 -29 -166 -116 -5 -63
-17 -65 -45 -10 l-20 38 -19 -31 c-22 -34 -48 -41 -48 -12 0 25 20 83 36 101
7 8 17 41 23 72 6 32 17 71 26 87 25 49 17 79 -13 49 -9 -9 -12 -9 -12 -1 0 7
5 15 10 18 14 9 12 42 -2 49 -7 3 -3 3 10 0 20 -5 22 -3 16 20 -5 21 -3 26 12
25 11 0 14 -3 7 -6 -27 -10 -11 -22 23 -17 41 5 207 110 198 125 -3 6 -11 5
-20 -2 -8 -6 -26 -9 -41 -6 -18 3 -45 -4 -76 -19 -26 -14 -51 -23 -55 -20 -13
8 -44 -22 -37 -34 5 -9 1 -10 -15 -5 -15 5 -20 3 -16 -3 3 -6 2 -13 -3 -17 -6
-3 -8 5 -5 20 2 14 0 25 -6 25 -5 0 -10 -4 -10 -10 0 -5 -11 -10 -25 -10 -14
0 -25 4 -25 9 0 5 -9 7 -20 4 -17 -4 -19 -2 -13 13 6 17 5 17 -10 6 -9 -8 -21
-11 -27 -7 -5 3 -10 1 -10 -6 0 -9 -3 -9 -14 0 -11 9 -20 10 -35 1 -19 -10
-25 -7 -22 12 0 4 -6 5 -14 2 -21 -8 -19 6 3 22 16 12 16 13 0 14 -10 0 -22
-8 -27 -18 -5 -10 -21 -18 -36 -20 l-26 -2 33 63 c37 72 154 193 242 251 33
22 96 53 140 69 45 16 82 30 83 31 1 1 -13 46 -32 99 -22 63 -30 97 -22 96 6
-1 20 1 30 5 9 5 24 5 32 2 13 -5 14 -10 5 -27 -7 -11 -9 -23 -6 -27 3 -3 6
-1 6 5 0 11 31 13 40 2 3 -3 13 3 23 13 14 15 14 18 2 18 -8 0 -15 -4 -15 -8
0 -4 -10 -8 -22 -9 -21 -2 -22 -1 -5 11 9 7 17 18 17 25 0 6 9 11 20 11 11 0
20 5 20 11 0 5 5 7 10 4 6 -4 8 -11 5 -16 -4 -5 -2 -9 2 -9 5 0 14 9 21 20 7
12 18 17 29 13 13 -4 11 -1 -4 11 -14 10 -20 23 -16 32 3 9 0 20 -8 25 -11 7
-11 9 4 9 9 0 17 4 17 9 0 5 3 17 7 27 4 11 3 15 -4 11 -8 -5 -7 1 0 18 13 28
30 34 20 8 -6 -16 -5 -16 10 -5 9 8 13 20 10 29 -5 13 -2 15 11 10 14 -6 17
-3 12 9 -3 8 -6 21 -6 27 0 6 -7 2 -16 -9 -15 -18 -15 -18 -5 3 6 12 8 30 5
40 -3 10 4 2 15 -19 11 -20 38 -90 60 -155z m-4395 25 c-4 -7 -36 -55 -72
-106 -67 -98 -165 -293 -201 -398 -81 -241 -114 -649 -75 -925 64 -464 361
-927 810 -1265 67 -50 169 -115 228 -145 58 -30 104 -58 102 -64 -2 -5 -10 -8
-17 -6 -39 12 -79 12 -79 1 0 -7 -9 -9 -22 -6 -13 3 -17 3 -10 0 10 -5 10 -9
1 -20 -10 -12 -8 -17 7 -29 17 -12 20 -11 26 3 4 11 7 6 7 -15 1 -24 8 -36 29
-48 26 -15 26 -15 2 -9 -45 12 -154 71 -246 133 -136 92 -592 526 -663 631
-165 244 -260 477 -300 733 -50 319 -52 519 -7 770 49 269 77 359 159 523 46
92 66 117 95 119 10 1 48 23 85 48 38 26 74 47 80 47 7 0 23 9 37 20 29 23 34
24 24 8z m3212 -83 c60 -30 114 -55 120 -55 14 0 65 -77 89 -135 65 -153 140
-442 155 -595 13 -128 12 -355 -1 -481 -21 -207 -91 -474 -169 -642 -71 -155
-268 -426 -353 -488 -23 -17 -46 -37 -50 -45 -4 -8 -17 -14 -27 -14 -11 0 -20
-6 -20 -14 0 -8 -8 -17 -17 -21 -10 -3 -31 -23 -48 -45 -16 -21 -36 -39 -43
-40 -7 0 -11 -4 -8 -8 3 -5 -6 -15 -19 -22 -14 -7 -25 -19 -25 -27 0 -7 -6
-13 -14 -13 -8 0 -13 -8 -12 -17 3 -38 -283 -226 -328 -215 -11 2 -16 0 -12
-7 5 -7 1 -8 -9 -5 -9 4 -15 3 -14 -2 4 -21 -2 -28 -11 -14 -8 12 -10 12 -10
-5 0 -14 -3 -16 -8 -7 -9 14 -42 6 -42 -10 0 -5 5 -6 10 -3 6 3 10 4 10 1 0
-3 -9 -10 -19 -15 -14 -8 -22 -7 -32 6 -12 15 -12 16 4 10 10 -4 16 -3 12 2
-3 5 5 17 17 25 l22 16 -22 20 c-24 23 -28 19 -12 -11 14 -26 2 -24 -21 4 -16
20 -28 49 -13 34 8 -8 137 52 209 98 77 49 242 171 272 201 38 38 26 41 -14 2
-90 -85 -315 -235 -403 -269 -64 -24 -599 -41 -955 -30 -143 4 -225 8 -181 9
70 2 77 4 66 17 -11 13 -15 13 -22 3 -6 -9 -7 -5 -3 10 5 16 2 22 -9 22 -9 0
-16 4 -16 10 0 14 29 0 40 -20 5 -10 21 -17 36 -17 15 -1 21 3 14 7 -8 5 -7 9
6 14 9 3 14 9 11 13 -4 3 -13 0 -22 -7 -9 -7 -19 -9 -23 -5 -4 4 -1 10 6 12 7
3 17 14 23 25 8 15 8 19 0 14 -6 -4 -11 -2 -11 3 0 6 7 11 15 11 8 0 15 -4 15
-10 0 -5 5 -10 12 -10 9 0 9 3 0 12 -17 17 -15 26 6 31 13 4 11 5 -5 6 -13 0
-23 -3 -23 -9 0 -5 -8 -10 -17 -10 -15 0 -15 2 -4 9 27 17 -53 23 -252 20
-164 -3 -197 -7 -220 -22 -15 -9 -27 -25 -27 -35 -1 -15 -2 -15 -11 1 -24 40
47 85 232 146 127 42 196 84 236 145 25 36 34 44 39 32 3 -9 13 -16 21 -16 8
0 12 -4 9 -9 -3 -5 5 -8 18 -7 13 0 22 4 19 9 -6 11 15 9 39 -4 15 -8 19 -8
14 0 -4 6 0 11 9 11 10 0 14 -5 9 -12 -5 -10 -4 -10 6 -1 10 10 17 10 27 1 11
-9 13 -8 11 1 -2 9 10 14 32 16 19 1 57 5 83 9 28 3 46 2 43 -3 -4 -5 3 -7 15
-4 13 4 18 11 14 21 -5 12 -3 13 10 2 12 -10 19 -10 27 -2 8 8 15 9 25 1 10
-9 13 -7 14 7 0 11 9 -1 20 -26 40 -91 84 -120 254 -170 199 -59 217 -73 229
-164 3 -27 9 -52 12 -55 13 -14 250 129 374 224 188 146 384 357 515 556 97
147 112 175 154 291 147 402 165 919 45 1284 -38 115 -124 291 -199 405 -35
54 -63 99 -61 99 2 0 53 -25 112 -55z m-4541 -35 c-6 -39 9 -58 18 -22 3 10 5
6 6 -10 1 -21 6 -28 21 -28 28 0 25 -20 -2 -21 -22 -1 -22 -1 2 -9 14 -5 18
-8 9 -9 -9 -1 -23 -8 -30 -18 -13 -15 -12 -15 8 -5 29 16 36 15 29 -3 -4 -12
4 -15 42 -16 26 -1 39 -3 29 -6 -9 -2 -15 -9 -12 -14 4 -5 -1 -9 -10 -9 -9 0
-13 5 -10 10 3 6 -4 10 -16 10 -21 0 -21 -1 -5 -19 17 -19 16 -19 -64 -19 -70
0 -80 2 -76 17 3 9 10 36 16 61 35 140 58 194 45 110z m5580 31 c3 -5 1 -12
-5 -16 -5 -3 -10 1 -10 9 0 18 6 21 15 7z m-5274 -172 c-24 -91 -24 -91 -74
-72 -23 9 -51 23 -62 30 -19 13 -18 14 15 12 23 -2 34 1 33 8 -2 7 4 10 12 7
8 -4 15 -2 15 3 0 17 50 69 51 53 0 -8 5 -4 10 9 18 44 18 16 0 -50z m-151
-74 c198 -30 335 -93 448 -208 66 -66 122 -136 122 -153 0 -3 -7 -1 -15 6 -8
7 -15 9 -16 4 -2 -25 -10 -58 -16 -63 -3 -3 -3 13 0 37 4 34 3 41 -8 32 -7 -6
-20 -7 -30 -4 -16 7 -16 6 -1 -18 13 -20 14 -25 2 -25 -8 0 -12 6 -8 15 3 10
1 13 -6 8 -8 -5 -12 1 -12 15 0 19 -2 20 -17 8 -15 -12 -16 -12 -10 4 8 22
-19 35 -36 17 -10 -10 -7 -11 13 -6 14 3 19 3 13 0 -7 -3 -13 -12 -13 -19 0
-7 -9 -15 -21 -18 -17 -4 -18 -3 -8 9 10 12 5 14 -35 13 -25 -1 -46 -7 -46
-13 0 -6 -4 -5 -9 2 -4 8 -11 13 -15 13 -26 -4 -46 1 -41 9 9 15 -12 12 -27
-4 -11 -12 -16 -12 -31 2 -17 15 -17 15 -8 -10 9 -24 8 -26 -11 -23 -25 5 -34
13 -24 22 4 4 11 1 16 -7 6 -9 10 -10 10 -3 0 6 -7 19 -16 28 -15 15 -18 15
-37 -2 -11 -10 -17 -13 -14 -6 4 7 -1 14 -13 18 -17 5 -18 10 -9 28 11 20 10
20 -15 -3 -20 -18 -25 -20 -20 -7 5 13 2 16 -10 11 -10 -4 -16 -1 -16 9 0 10
-6 13 -21 10 -16 -5 -18 -8 -7 -15 10 -8 10 -9 -2 -5 -8 2 -14 12 -14 21 1 9
-2 16 -7 16 -5 0 -9 -5 -9 -11 0 -5 -4 -8 -9 -5 -5 3 -8 14 -6 24 1 9 0 11 -2
5 -3 -7 -8 -13 -12 -13 -12 0 -47 29 -36 30 6 0 -8 10 -29 20 -22 11 -42 18
-44 15 -3 -3 0 -5 7 -5 7 0 9 -5 5 -12 -4 -7 -3 -8 4 -4 7 4 12 3 12 -3 0 -6
8 -8 18 -5 13 5 14 4 3 -4 -11 -8 -10 -12 5 -21 11 -6 15 -11 11 -11 -5 0 -20
9 -34 20 -20 15 -29 17 -39 9 -10 -8 -14 -8 -14 0 0 6 5 11 12 11 9 0 9 3 0
12 -8 8 -15 8 -26 -1 -11 -9 -14 -8 -12 6 1 12 -5 17 -16 15 -13 -2 -16 2 -12
15 5 17 5 17 -9 1 -15 -19 -32 -25 -22 -8 3 6 -1 10 -9 10 -10 0 -13 -6 -9
-17 6 -15 5 -16 -9 -3 -9 8 -14 18 -11 22 2 4 -3 5 -12 2 -8 -4 -21 -1 -29 5
-7 6 -15 8 -18 5 -3 -3 -9 0 -13 7 -6 8 1 10 24 7 17 -2 31 -1 31 3 0 9 -68
21 -80 14 -6 -4 -7 1 -3 11 4 12 3 15 -5 10 -8 -5 -12 0 -12 14 0 13 -4 19
-12 14 -7 -4 -8 -3 -4 4 4 7 18 10 34 6 18 -4 23 -2 14 4 -30 21 146 69 263
71 33 0 103 -6 155 -14z m-470 -85 c8 -5 11 -10 5 -10 -5 0 -17 5 -25 10 -8 5
-10 10 -5 10 6 0 17 -5 25 -10z m14 -36 c3 -8 2 -12 -4 -9 -6 3 -10 10 -10 16
0 14 7 11 14 -7z m457 -208 c140 -30 229 -97 289 -219 64 -129 70 -242 21
-390 -24 -72 -95 -164 -115 -149 -20 15 -50 5 -111 -36 -71 -48 -151 -67 -256
-60 -84 6 -171 47 -239 112 -25 23 -56 49 -69 56 -22 11 -23 10 -17 -5 16 -42
-28 12 -50 61 -85 192 -43 403 108 538 98 89 277 126 439 92z m229 -30 c0 -3
-4 -8 -10 -11 -5 -3 -10 -1 -10 4 0 6 5 11 10 11 6 0 10 -2 10 -4z m30 -10 c0
-20 -17 -29 -26 -15 -5 8 -3 9 6 4 10 -6 12 -4 7 8 -3 10 -2 17 3 17 6 0 10
-6 10 -14z m5903 -18 c-4 -7 -8 -16 -9 -20 -1 -5 -2 -11 -3 -15 -2 -9 -21 18
-21 30 0 5 4 6 9 2 5 -3 12 -1 16 5 3 5 8 10 11 10 3 0 2 -6 -3 -12z m-876
-34 c-3 -3 -12 -4 -19 -1 -8 3 -5 6 6 6 11 1 17 -2 13 -5z m-30 -14 c11 0 8
-6 -8 -19 -22 -18 -26 -18 -41 -4 -16 14 -17 14 -13 -6 2 -11 -1 -21 -7 -21
-5 0 -8 7 -4 15 3 8 0 15 -7 15 -7 1 -1 7 13 15 14 8 31 12 38 10 8 -3 21 -5
29 -5z m-167 -50 c0 -5 -5 -10 -11 -10 -5 0 -7 5 -4 10 3 6 8 10 11 10 2 0 4
-4 4 -10z m-2710 -467 c0 -5 -4 -14 -9 -21 -6 -10 -10 -9 -14 7 -3 14 0 21 9
21 8 0 14 -3 14 -7z m103 -78 c-3 -9 -8 -14 -10 -11 -3 3 -2 9 2 15 9 16 15
13 8 -4z m137 -39 c0 -3 -4 -8 -10 -11 -5 -3 -10 -1 -10 4 0 6 5 11 10 11 6 0
10 -2 10 -4z m3069 -73 c1 -19 -135 -78 -144 -62 -4 5 1 9 10 9 30 0 73 30 96
66 20 33 23 35 30 18 4 -10 8 -24 8 -31z m-2630 -95 c1 14 31 17 31 2 0 -5 -7
-10 -15 -10 -8 0 -15 -5 -15 -11 0 -6 -7 -3 -16 5 -8 9 -12 21 -8 28 5 8 10 6
15 -8 4 -10 8 -13 8 -6z m-868 -425 c13 -16 12 -17 -3 -4 -17 13 -22 21 -14
21 2 0 10 -8 17 -17z m53 -60 c8 -19 2 -16 -25 13 -23 25 -23 26 -2 13 13 -7
25 -19 27 -26z m-1914 -344 l38 -44 57 29 c80 40 145 56 260 62 118 7 238 -12
317 -49 50 -23 140 -105 200 -182 55 -69 98 -136 98 -151 0 -8 5 -12 10 -9 6
3 10 -1 10 -9 0 -10 -8 -15 -23 -14 -13 1 -38 -4 -55 -11 -18 -8 -35 -11 -39
-7 -3 3 1 6 10 6 9 0 18 4 21 9 3 4 -6 6 -19 3 -14 -2 -25 -8 -25 -13 0 -5
-10 -9 -22 -8 -16 0 -18 2 -8 6 15 7 -86 34 -127 35 -13 0 -23 5 -23 12 0 6
-4 5 -9 -3 -7 -11 -21 -8 -76 19 -47 23 -85 34 -128 36 -34 2 -93 6 -132 9
-38 3 -78 5 -87 6 -10 0 -20 4 -23 10 -3 5 1 6 9 3 9 -3 16 -2 16 4 0 16 -33
24 -42 10 -6 -9 -11 -9 -14 -2 -2 6 -19 8 -36 6 -17 -3 -28 -1 -25 4 3 5 -6
10 -20 11 -19 1 -22 -1 -12 -8 9 -5 10 -9 2 -9 -6 0 -18 7 -26 15 -8 8 -18 11
-21 8 -9 -10 -48 -14 -43 -6 8 12 -67 10 -75 -1 -5 -7 -13 -4 -23 9 -12 16
-14 17 -9 3 4 -13 1 -18 -11 -18 -9 0 -13 5 -10 10 3 6 1 10 -4 10 -6 0 -11
-7 -11 -15 0 -29 -18 -15 -23 18 -6 39 5 52 86 106 49 33 55 40 31 35 -34 -6
-43 2 -92 84 -33 54 -57 132 -41 132 5 0 8 4 7 9 -3 9 2 11 21 11 5 0 12 -8
15 -17 3 -10 3 0 1 22 -4 37 -1 34 42 -46 25 -48 62 -106 83 -130z m2714 156
c46 -43 30 -97 -42 -135 -33 -16 -35 -10 -12 35 15 30 17 41 7 47 -6 4 -7 8
-2 8 14 0 17 38 4 45 -5 4 -9 10 -9 16 0 17 27 9 54 -16z m-683 -42 c-4 -28
-6 -32 -9 -15 -3 22 3 52 11 52 1 0 1 -17 -2 -37z m2835 11 c-6 -22 -4 -25 14
-19 15 5 20 2 18 -12 -3 -41 2 -64 14 -57 7 4 8 3 4 -5 -4 -6 -12 -9 -17 -6
-5 4 -9 1 -9 -4 0 -6 -6 -10 -12 -8 -8 1 -12 -6 -10 -17 2 -10 -1 -15 -6 -12
-5 3 -13 -10 -16 -28 -4 -19 -12 -36 -18 -38 -7 -3 10 -19 36 -37 147 -101
289 -304 322 -460 12 -60 19 -143 7 -98 -2 9 -9 17 -14 17 -6 0 -7 -5 -4 -11
4 -6 1 -10 -6 -8 -29 3 -50 -1 -44 -11 9 -14 -1 -12 -45 9 -31 15 -40 16 -44
5 -7 -19 -73 -29 -91 -14 -16 13 -59 4 -50 -11 4 -5 3 -9 -1 -9 -11 0 -54 50
-54 62 0 6 -2 9 -5 6 -3 -3 -1 -35 5 -72 14 -87 1 -164 -44 -258 -31 -66 -105
-167 -93 -126 12 35 -27 26 -115 -27 -105 -64 -129 -70 -263 -70 -90 0 -106 3
-160 29 -33 16 -69 31 -79 33 -11 2 -26 9 -34 16 -13 10 -14 9 -2 -9 7 -11 33
-34 58 -52 58 -40 42 -42 -21 -2 -52 32 -128 124 -169 203 -38 72 -51 147 -45
247 5 78 4 82 -8 52 -15 -33 -30 -39 -55 -21 -12 8 -8 9 15 6 27 -5 28 -4 11
9 -12 8 -29 11 -44 7 -18 -4 -23 -2 -18 6 6 8 1 8 -18 0 -14 -7 -23 -15 -21
-20 3 -4 -4 -5 -14 -2 -12 3 -17 11 -14 19 3 8 1 14 -5 14 -6 0 -12 -6 -15
-12 -3 -10 -7 -10 -18 -2 -18 15 -93 28 -85 16 7 -12 -19 -23 -38 -16 -15 6
-19 -9 -29 -91 -3 -20 -5 -14 -6 17 -2 84 47 283 66 264 6 -5 39 34 65 75 24
37 104 124 233 251 122 121 177 155 309 188 96 24 249 26 351 5 38 -8 102 -30
142 -49 l73 -35 21 42 c30 60 89 157 96 157 3 0 2 -12 -1 -26z m-5976 -128 c0
-2 -8 -6 -18 -8 -12 -4 -18 1 -18 13 0 14 4 15 18 8 10 -5 18 -11 18 -13z
m-11 -101 c0 -5 -4 -3 -9 5 -5 8 -9 22 -9 30 0 16 17 -16 18 -35z m28 30 c0
-8 -4 -12 -9 -9 -5 3 -6 10 -3 15 9 13 12 11 12 -6z m6903 -62 c-13 -3 -30
-12 -38 -21 -11 -15 -12 -14 -2 6 7 15 19 22 38 21 26 -2 26 -2 2 -6z m-5970
-73 c0 -11 -4 -20 -9 -20 -11 0 -22 26 -14 34 12 12 23 5 23 -14z m5981 -7
c-12 -20 -14 -14 -5 12 4 9 9 14 11 11 3 -2 0 -13 -6 -23z m-5213 -123 c144
-72 225 -175 257 -329 13 -58 13 -80 1 -152 -19 -115 -36 -162 -61 -165 -11
-2 -23 2 -26 8 -4 6 -18 -7 -34 -31 -15 -22 -32 -41 -37 -41 -5 0 -1 12 10 28
83 118 104 295 50 414 -32 68 -123 159 -198 196 -51 25 -64 27 -185 27 -129 0
-130 0 -193 -34 -74 -40 -135 -104 -182 -192 -33 -60 -35 -70 -35 -159 0 -90
2 -100 35 -165 19 -38 60 -96 90 -129 30 -32 46 -54 35 -48 -25 13 -63 54
-104 112 -18 25 -35 44 -39 44 -4 -1 -17 14 -30 32 -28 42 -33 42 -26 2 4 -31
4 -32 -7 -8 -6 14 -17 55 -25 93 -12 58 -12 76 1 138 33 161 132 293 268 358
83 40 143 51 255 47 87 -3 99 -6 180 -46z m1529 -46 c-3 -3 -12 -4 -19 -1 -8
3 -5 6 6 6 11 1 17 -2 13 -5z m17 -29 c3 -8 3 -15 0 -15 -3 0 -12 7 -20 15
-13 13 -13 15 -1 15 8 0 17 -7 21 -15z m-584 -111 c0 -8 -4 -12 -10 -9 -5 3
-10 10 -10 16 0 5 5 9 10 9 6 0 10 -7 10 -16z m403 9 c-7 -2 -21 -2 -30 0 -10
3 -4 5 12 5 17 0 24 -2 18 -5z m-1448 -44 c4 -6 9 -45 12 -87 4 -64 1 -82 -15
-107 -22 -36 -142 -142 -142 -126 0 16 -49 9 -66 -10 -9 -10 -19 -39 -24 -66
-9 -48 -9 -47 -4 11 5 69 26 101 104 167 41 34 50 48 50 74 0 38 -32 75 -64
75 -14 0 -37 -15 -59 -40 -25 -28 -44 -40 -63 -40 -27 0 -27 0 -20 54 3 30 10
66 16 80 l10 26 129 0 c81 0 132 -4 136 -11z m4545 -144 c0 -2 -9 -3 -19 -2
-11 0 -18 5 -15 9 4 6 34 0 34 -7z m-2437 -131 c40 -8 115 -36 167 -62 128
-62 242 -174 314 -308 l49 -92 69 19 c38 11 128 42 200 69 72 28 132 49 134
48 1 -2 -14 -22 -34 -45 -38 -43 -76 -61 -187 -89 -33 -8 -68 -19 -78 -25 -10
-5 -22 -7 -27 -4 -5 3 -11 1 -14 -4 -4 -5 -17 -8 -30 -7 -22 3 -23 1 -15 -26
7 -26 6 -29 -9 -23 -9 3 -13 3 -10 -1 4 -3 0 -13 -8 -22 -14 -13 -17 -13 -26
-1 -7 11 -11 11 -15 2 -7 -19 -23 -16 -24 5 0 13 -2 14 -6 2 -10 -25 -27 -36
-62 -38 -19 -1 -40 -10 -47 -20 -7 -9 -14 -12 -14 -5 0 13 -17 12 -47 -5 -19
-11 -23 -10 -23 3 0 8 -5 15 -11 15 -5 0 -8 -4 -5 -8 2 -4 1 -14 -4 -21 -6
-11 -13 -10 -35 7 -34 27 -45 21 -45 -24 0 -48 -18 -40 -39 16 l-17 45 -81 3
-81 3 -27 -53 c-15 -29 -39 -66 -52 -82 l-24 -29 29 -31 c16 -17 37 -44 48
-59 20 -29 120 -77 161 -77 23 0 53 34 53 59 0 19 42 101 52 101 11 0 10 -27
-1 -67 -14 -47 2 -49 49 -7 22 20 40 33 40 28 0 -4 -20 -45 -45 -91 -25 -45
-45 -94 -45 -108 0 -28 -26 -85 -38 -85 -4 0 -15 9 -25 20 -9 11 -26 20 -37
20 -12 0 -38 -9 -60 -20 -73 -37 -80 -19 -19 47 l41 45 -28 18 c-16 9 -39 29
-52 42 -15 16 -30 24 -45 21 -12 -2 -52 7 -89 21 -76 29 -69 33 -118 -69 l-34
-70 -13 80 c-20 117 -27 128 -98 142 -67 13 -92 4 -149 -56 l-30 -31 22 -51
c18 -45 19 -50 4 -44 -9 4 -28 10 -42 13 -14 2 -32 11 -41 19 -14 12 -18 10
-29 -17 -15 -36 -30 -30 -30 10 0 17 -9 53 -20 82 -11 29 -20 54 -20 54 0 1
16 5 35 8 29 6 36 12 45 44 5 20 10 42 10 48 0 6 9 23 21 38 15 19 19 34 15
52 -10 39 -33 40 -72 3 -32 -31 -34 -32 -34 -11 0 25 41 112 74 157 29 39 38
55 32 55 -3 0 -18 -19 -35 -43 -29 -42 -31 -43 -80 -42 -33 1 -48 -2 -44 -9 4
-6 -1 -5 -10 3 -11 8 -28 11 -48 7 -22 -4 -28 -2 -23 7 5 9 4 9 -5 1 -8 -7
-32 -8 -72 -2 -34 4 -66 5 -72 1 -6 -4 -7 -1 -2 8 6 11 5 12 -6 2 -24 -23 -95
-11 -194 31 -16 7 -54 22 -84 32 -31 11 -75 38 -103 62 -87 79 -55 83 93 13
57 -27 140 -61 184 -76 44 -16 84 -32 90 -37 17 -15 21 -9 65 80 35 72 59 103
134 177 75 75 108 99 186 138 145 72 211 86 423 86 127 1 199 -4 250 -15z
m-4298 -433 l40 -7 -37 -5 c-23 -3 -38 -1 -39 6 -1 5 -5 -8 -10 -30 -4 -24 -4
-63 3 -97 l10 -57 87 46 c47 25 88 49 89 54 6 14 24 11 44 -8 18 -16 19 -16 9
11 -14 36 -14 46 3 46 8 0 17 -11 20 -24 3 -14 18 -38 32 -55 26 -31 25 -35
-8 -32 -16 2 -18 -7 -18 -68 0 -38 -3 -77 -7 -87 -5 -14 -2 -16 20 -10 31 7
33 -2 13 -49 l-13 -30 -18 37 c-14 28 -22 35 -31 27 -9 -7 -18 -7 -31 1 -16
10 -16 10 4 5 31 -9 43 20 43 104 0 64 -2 72 -25 87 -24 15 -29 15 -73 -1 -26
-10 -60 -28 -77 -39 -16 -12 -32 -22 -34 -24 -9 -5 44 -53 86 -78 58 -33 55
-40 -4 -10 -86 44 -87 44 -117 -21 l-26 -58 6 55 c3 30 7 62 10 71 2 9 -4 22
-13 30 -16 12 -17 12 -5 -2 11 -14 5 -16 -53 -15 -36 0 -65 4 -65 7 0 3 25 13
55 23 41 13 56 23 60 39 7 31 -9 132 -20 131 -6 -1 -21 -5 -35 -9 -23 -7 -24
-6 -10 10 27 33 63 40 135 26z m-205 -247 c0 -18 -4 -23 -12 -17 -7 4 -22 6
-33 5 -18 -3 -17 -1 5 17 33 27 40 26 40 -5z m2340 -259 c294 -169 570 -293
892 -399 90 -29 188 -65 218 -80 l55 -26 -45 5 c-81 10 -368 104 -572 189
-165 68 -410 194 -518 266 -109 72 -220 151 -220 156 0 3 12 -3 28 -14 15 -11
88 -55 162 -97z m-2215 65 c3 -5 2 -10 -4 -10 -5 0 -13 5 -16 10 -3 6 -2 10 4
10 5 0 13 -4 16 -10z m254 -10 c-32 -18 -94 -27 -119 -17 -23 10 -21 11 25 17
82 11 113 11 94 0z m-4 -142 c47 -23 85 -46 85 -51 0 -5 -35 11 -77 34 -55 31
-93 44 -137 49 l-61 7 52 2 c43 1 68 -6 138 -41z m3636 -28 c37 -46 49 -48 92
-16 57 42 60 42 52 5 -14 -72 -15 -73 -36 -53 -14 12 -30 15 -64 12 -45 -6
-46 -5 -67 36 -11 22 -28 50 -37 60 -15 18 -15 18 6 7 12 -6 37 -29 54 -51z
m-3991 9 c-30 -16 -59 -34 -64 -39 -13 -13 -29 -13 -21 0 7 12 115 69 130 69
6 1 -15 -13 -45 -30z m74 -54 c3 -8 1 -15 -3 -15 -5 0 -11 7 -15 15 -3 8 -1
15 3 15 5 0 11 -7 15 -15z m256 6 c0 -6 -4 -13 -10 -16 -5 -3 -10 1 -10 9 0 9
5 16 10 16 6 0 10 -4 10 -9z m3586 -35 c11 -4 31 -20 43 -37 l23 -31 -61 32
c-57 31 -82 57 -43 46 9 -2 26 -7 38 -10z m-3526 -35 c-5 -11 -20 -27 -31 -35
-19 -13 -26 -12 -75 12 -29 14 -51 28 -49 31 3 2 25 -6 50 -18 46 -23 67 -20
95 13 17 22 23 20 10 -3z m4003 -57 c-15 -12 -30 -21 -32 -19 -2 2 9 26 25 52
29 48 29 48 32 19 3 -22 -3 -34 -25 -52z m-111 -5 c13 0 32 -4 43 -9 60 -26
-121 5 -187 31 -16 7 -28 19 -28 30 0 16 9 14 74 -17 41 -19 85 -34 98 -35z
m-4252 19 c0 -16 -20 -7 -30 12 -10 19 -10 20 9 8 12 -7 21 -16 21 -20z m4495
14 c-26 -23 -85 -52 -85 -42 0 6 19 19 43 30 48 21 55 23 42 12z m-445 -32
c11 7 18 -1 31 -33 8 -23 15 -43 13 -45 -1 -2 -24 18 -50 43 -27 26 -40 42
-28 37 12 -6 26 -7 34 -2z m-4582 -43 c22 -17 5 -19 -27 -2 -31 16 -32 15 -61
-14 -17 -16 -30 -26 -30 -21 0 4 14 20 31 34 31 27 57 28 87 3z m1049 -19 c13
-12 23 -33 23 -47 -1 -25 -1 -25 -14 5 -8 17 -24 39 -37 48 -14 9 -18 16 -9
16 7 0 24 -10 37 -22z m163 -55 c0 -7 -2 -13 -4 -13 -6 0 -56 76 -56 86 1 13
59 -59 60 -73z m-1136 -8 c-1 -42 -4 -79 -8 -82 -3 -4 -6 30 -6 75 0 45 3 82
8 82 4 0 6 -34 6 -75z m898 53 c-16 -16 -15 -81 0 -96 7 -7 27 -12 46 -12 19
0 31 -4 27 -10 -10 -16 -58 -11 -82 9 -16 13 -23 30 -23 53 0 33 27 85 38 73
3 -3 0 -11 -6 -17z m298 -48 c0 -38 -4 -70 -9 -70 -4 0 -9 32 -10 70 -1 43 2
70 9 70 6 0 10 -28 10 -70z m129 11 c21 -10 36 -25 37 -38 4 -23 -19 -53 -39
-53 -7 0 -4 5 6 11 28 16 21 45 -15 59 -53 21 -59 28 -45 57 12 26 12 26 17 3
3 -12 20 -29 39 -39z m-825 12 c-19 -46 -40 -70 -29 -33 15 51 25 70 34 70 6
0 3 -17 -5 -37z m4246 22 c-33 -19 -50 -18 -26 0 11 8 27 15 35 15 10 -1 7 -6
-9 -15z m-4337 -15 c3 -11 4 -20 3 -20 -2 0 -11 9 -21 20 -15 17 -16 20 -3 20
9 0 18 -9 21 -20z m307 -9 c0 -11 -61 -43 -68 -36 -2 2 7 10 22 16 14 7 26 16
26 21 0 4 5 8 10 8 6 0 10 -4 10 -9z m-673 -27 c-3 -3 -12 -4 -19 -1 -8 3 -5
6 6 6 11 1 17 -2 13 -5z m469 -61 c-10 -10 -19 5 -10 18 6 11 8 11 12 0 2 -7
1 -15 -2 -18z m-416 2 c0 -8 -4 -15 -10 -15 -5 0 -10 7 -10 15 0 8 5 15 10 15
6 0 10 -7 10 -15z m517 -7 c-3 -8 -6 -5 -6 6 -1 11 2 17 5 13 3 -3 4 -12 1
-19z m679 -5 c-7 -7 -26 7 -26 19 0 6 6 6 15 -2 9 -7 13 -15 11 -17z m-1371 7
c-3 -5 -21 -9 -38 -9 l-32 2 35 7 c19 4 36 8 38 9 2 0 0 -3 -3 -9z m934 -186
c-15 -18 -63 -18 -79 1 -16 19 -26 95 -12 95 6 0 12 -21 14 -47 3 -41 6 -48
26 -51 36 -5 52 15 54 72 l2 51 3 -53 c3 -32 -1 -59 -8 -68z m-246 66 c-3 -12
-8 -19 -11 -16 -5 6 5 36 12 36 2 0 2 -9 -1 -20z m394 -16 c-3 -3 -12 -4 -19
-1 -8 3 -5 6 6 6 11 1 17 -2 13 -5z m3 -54 c0 -5 -5 -10 -11 -10 -5 0 -7 5 -4
10 3 6 8 10 11 10 2 0 4 -4 4 -10z m-323 -6 c-3 -3 -12 -4 -19 -1 -8 3 -5 6 6
6 11 1 17 -2 13 -5z m404 -34 c22 -13 25 -33 5 -49 -12 -10 -13 -8 -9 9 4 14
-1 26 -13 35 -22 17 -11 20 17 5z m3508 -191 c9 5 23 6 30 2 16 -10 51 -2 51
11 0 5 5 6 10 3 6 -4 7 -11 4 -17 -4 -6 0 -6 13 1 11 6 23 7 27 3 4 -3 11 0
16 8 8 12 10 11 10 -4 0 -16 3 -17 12 -8 15 15 32 16 23 2 -8 -13 18 -8 27 5
5 7 8 7 8 0 0 -10 60 -16 173 -18 31 0 57 -3 57 -7 0 -3 25 -6 55 -5 30 0 55
-4 55 -9 0 -4 7 -3 15 4 11 9 15 9 15 1 0 -9 5 -9 20 -1 16 9 19 8 13 -6 -5
-14 -3 -15 13 -6 13 7 26 7 45 -4 21 -10 28 -11 32 -1 2 8 8 7 20 -5 12 -12
25 -14 50 -8 23 5 40 3 52 -6 14 -10 22 -11 32 -3 10 9 13 8 13 -1 0 -8 7 -10
18 -5 27 11 72 12 72 2 0 -5 11 -6 24 -3 14 3 28 1 31 -4 4 -6 10 -8 15 -5 5
3 18 1 28 -4 13 -7 22 -7 30 1 9 9 12 9 12 0 0 -7 17 -11 43 -12 39 0 92 -6
92 -10 0 -1 10 -3 22 -4 19 -2 21 0 10 13 -8 11 -6 11 9 -2 12 -10 28 -15 38
-11 9 3 16 2 16 -3 0 -5 23 -8 50 -7 30 2 50 -2 50 -8 0 -6 6 -5 16 3 13 10
17 10 24 -1 7 -11 11 -11 24 -1 11 9 16 10 16 2 0 -7 24 -11 68 -12 93 0 111
-2 106 -11 -7 -11 4 -10 26 2 13 7 21 7 25 0 3 -6 20 -8 36 -5 17 3 28 2 25
-3 -2 -4 3 -8 12 -8 9 0 30 -3 46 -8 23 -6 27 -4 23 8 -5 12 -1 12 23 -2 16
-9 26 -20 24 -24 -3 -5 2 -8 11 -8 9 0 13 5 10 10 -10 15 28 12 52 -5 17 -12
23 -12 27 -2 5 9 7 9 12 -1 5 -10 9 -10 20 -1 11 9 14 8 15 -2 0 -8 4 -5 9 6
7 16 9 16 9 4 1 -9 8 -19 15 -22 11 -4 13 -1 9 10 -6 15 -5 15 16 1 13 -9 30
-14 39 -11 10 4 13 2 8 -5 -5 -9 -34 -10 -99 -6 -51 3 -146 7 -212 9 -66 1
-185 5 -265 8 -364 16 -649 19 -1540 20 -865 1 -1189 -3 -1530 -18 -63 -2
-196 -7 -294 -10 -99 -3 -182 -7 -185 -10 -4 -2 -69 -6 -144 -9 -98 -4 -136
-3 -132 5 4 6 13 8 21 5 12 -5 12 -2 3 15 -10 20 -11 20 -24 2 -8 -10 -15 -13
-15 -8 0 23 22 34 42 22 15 -10 20 -9 27 2 7 11 10 9 16 -8 6 -19 8 -19 21 -6
20 19 29 19 50 -2 16 -16 16 -16 10 5 -7 21 -6 21 19 10 22 -10 28 -9 35 2 5
8 12 11 16 7 4 -4 12 -1 18 7 15 18 66 30 66 15 0 -8 4 -8 13 -2 6 6 26 9 42
8 17 0 36 3 43 8 7 6 15 7 19 4 3 -4 14 -2 24 3 13 8 20 6 28 -7 6 -10 11 -12
11 -5 0 6 7 12 15 12 8 0 15 6 16 13 0 10 2 10 6 0 6 -16 63 -17 63 -2 0 8 5
8 15 -1 11 -9 18 -10 28 -1 8 6 16 8 19 6 3 -3 17 -1 31 4 18 7 27 7 29 -1 2
-6 11 -4 21 6 11 12 17 13 17 5 0 -10 3 -10 11 -2 6 6 18 9 25 6 8 -3 14 1 14
8 0 9 3 10 8 4 8 -12 92 -14 92 -2 0 5 12 7 28 6 15 -2 32 -1 37 2 6 3 30 5
55 4 25 -1 51 3 59 9 11 8 13 8 8 0 -4 -7 0 -14 8 -18 8 -3 14 -2 14 2 -3 21
3 24 17 6 8 -10 13 -13 9 -7 -4 10 7 12 45 10 38 -3 50 0 46 9 -4 10 1 11 19
4 16 -6 25 -5 28 3 3 9 10 9 27 -1 12 -8 19 -9 16 -3 -4 6 15 9 54 8 33 -1 60
2 60 6 0 5 4 5 10 2 5 -3 27 -1 47 4 24 7 39 7 41 1 2 -6 17 -4 36 4 19 8 39
10 47 6 7 -5 21 -4 30 1 24 12 32 11 23 -3 -5 -9 -2 -9 9 1 9 7 17 10 17 7 0
-4 10 -2 21 5 15 8 19 8 15 0 -11 -16 0 -13 19 6 14 14 18 14 26 2 7 -12 9
-12 9 1 0 9 3 11 8 5 12 -17 42 -14 43 4 0 12 2 12 9 -4 5 -11 9 -14 9 -7 1 7
6 10 11 7 6 -3 10 0 10 7 0 10 2 10 9 -1 5 -8 14 -10 22 -5 23 14 50 12 45 -3
-3 -7 -1 -13 4 -13 6 0 10 4 10 9 0 5 7 12 16 15 8 3 12 2 9 -4 -3 -6 -1 -10
4 -10 6 0 11 3 11 8 0 4 11 8 25 8 14 1 25 -2 25 -6 0 -5 9 -6 20 -3 11 3 18
9 15 13 -3 5 4 6 15 3 11 -3 17 -10 13 -17 -3 -6 3 -3 14 7 11 9 23 14 26 10
4 -3 7 -1 7 6 0 8 5 7 16 -3 11 -11 21 -13 33 -7z m-2257 -227 c-3 -9 -13 -11
-29 -7 -18 4 -23 2 -18 -7 4 -7 0 -5 -9 6 -8 10 -19 15 -25 11 -6 -3 -11 -2
-11 3 0 4 22 8 49 8 36 -1 47 -4 43 -14z m4488 -2 c0 -5 -8 -10 -17 -10 -15 0
-16 2 -3 10 19 12 20 12 20 0z m30 0 c0 -5 -2 -10 -4 -10 -3 0 -8 5 -11 10 -3
6 -1 10 4 10 6 0 11 -4 11 -10z m-4675 -18 c-3 -3 -11 0 -18 7 -9 10 -8 11 6
5 10 -3 15 -9 12 -12z m223 -252 c7 -12 8 -20 2 -20 -5 0 -10 4 -10 8 0 5 -10
14 -22 20 -22 10 -22 11 -3 11 11 1 26 -8 33 -19z m72 13 c-1 -17 -28 -44 -35
-34 -3 6 -1 11 4 11 6 0 11 5 11 11 0 6 -8 8 -19 4 -11 -3 -22 -2 -25 3 -2 4
11 9 30 10 19 2 34 -1 34 -5z m157 -6 c6 -4 14 -4 16 0 5 7 153 9 337 4 150
-4 2046 -4 2970 0 413 2 649 -4 654 -16 5 -14 -2 -25 -16 -25 -5 0 -6 5 -2 12
4 7 3 8 -5 4 -6 -4 -9 -12 -6 -17 4 -5 -1 -9 -9 -9 -8 0 -18 5 -21 10 -4 6
-11 7 -17 4 -7 -4 -6 -9 3 -14 9 -6 8 -12 -6 -27 -17 -16 -18 -16 -12 -1 7 19
-8 34 -18 18 -5 -8 -11 -8 -19 -1 -13 11 -56 4 -56 -10 0 -5 -5 -9 -11 -9 -6
0 -9 9 -6 20 4 17 2 18 -14 9 -10 -5 -19 -15 -19 -21 0 -9 -3 -9 -12 0 -8 8
-8 15 3 29 7 10 -1 5 -18 -10 -22 -20 -33 -25 -38 -17 -6 9 -10 8 -18 -5 -7
-14 -11 -15 -17 -4 -7 10 -11 10 -24 -1 -9 -7 -19 -10 -23 -6 -3 3 0 6 7 6 17
0 5 13 -15 16 -8 1 -11 -4 -8 -12 3 -8 0 -14 -6 -14 -6 0 -11 5 -11 10 0 13
-37 13 -45 0 -5 -8 -11 -8 -19 -1 -9 7 -16 7 -24 -1 -6 -6 -35 -12 -64 -13
-29 -2 -61 -3 -72 -4 -11 -1 -16 -6 -13 -15 4 -10 1 -13 -9 -9 -7 3 -14 12
-14 21 0 13 -4 11 -16 -6 -14 -21 -41 -22 -29 -1 4 5 1 9 -5 9 -7 0 -10 -7 -7
-15 7 -17 -9 -30 -18 -14 -4 5 -13 8 -21 5 -9 -3 -11 0 -7 12 6 15 5 15 -10 3
-9 -7 -17 -10 -17 -7 0 4 -8 2 -18 -3 -13 -7 -22 -7 -29 0 -8 8 -13 7 -17 0
-4 -6 -2 -11 5 -11 8 0 8 -4 -1 -15 -7 -8 -18 -15 -24 -15 -6 0 -6 4 2 9 11 6
6 14 -20 32 -30 21 -31 21 -15 2 11 -13 14 -23 8 -27 -5 -4 -14 2 -20 11 -6
10 -11 14 -11 9 0 -5 -8 -2 -17 5 -14 12 -13 9 2 -16 l19 -30 -26 24 c-15 12
-31 20 -37 16 -6 -3 -11 -1 -11 4 0 18 -20 12 -45 -13 -14 -14 -27 -20 -30
-15 -4 5 -1 9 4 9 6 0 11 5 11 12 0 6 -9 3 -20 -7 -18 -16 -25 -14 -21 8 1 5
-3 6 -9 2 -6 -3 -8 -9 -6 -13 2 -4 -2 -13 -10 -20 -12 -11 -14 -10 -14 3 0 8
-4 15 -10 15 -5 0 -10 -5 -10 -11 0 -6 -9 -9 -20 -6 -11 3 -23 1 -26 -5 -4 -6
-10 -5 -15 3 -6 11 -9 10 -15 -4 -3 -9 -10 -14 -15 -11 -5 3 -7 9 -4 13 2 5
-7 6 -20 3 -14 -2 -28 -8 -30 -13 -3 -4 -12 -6 -20 -2 -9 3 -21 0 -29 -6 -19
-16 -46 -3 -39 17 3 10 2 13 -4 7 -4 -6 -19 -12 -32 -12 -13 -1 -27 -6 -30
-10 -3 -5 -19 -9 -36 -10 -28 -1 -29 0 -10 13 25 18 12 18 -25 -1 -25 -13 -31
-13 -43 -1 -15 15 -61 10 -51 -5 3 -5 0 -9 -5 -9 -6 0 -11 5 -11 12 0 6 -9 3
-20 -7 -19 -17 -20 -17 -20 -1 0 9 5 14 10 11 6 -3 10 -1 10 4 0 14 -17 14
-26 0 -4 -8 -9 -7 -16 2 -7 11 -11 11 -15 2 -6 -16 -43 -17 -43 -2 0 6 -6 9
-12 6 -7 -2 -12 -9 -11 -14 3 -16 -67 -15 -83 2 -17 16 -53 12 -66 -9 -5 -8
-11 -7 -19 1 -10 10 -16 10 -27 0 -12 -9 -16 -9 -19 1 -8 22 -31 13 -27 -10 2
-13 2 -17 -2 -10 -3 6 -15 12 -25 12 -11 0 -17 5 -14 10 3 6 1 10 -4 10 -6 0
-11 -4 -11 -9 0 -5 -9 -11 -20 -14 -11 -3 -20 -1 -20 4 0 5 5 9 12 9 6 0 8 3
5 7 -4 3 -16 -2 -27 -12 -18 -16 -24 -17 -59 -5 -29 9 -43 9 -59 1 -18 -10
-21 -9 -16 4 4 8 2 15 -4 15 -6 0 -12 -5 -14 -12 -3 -8 -11 -7 -28 5 -14 9
-29 17 -35 17 -5 0 -4 -4 3 -8 8 -5 -5 -9 -32 -9 -26 0 -43 5 -42 11 2 6 1 8
-1 4 -7 -12 -38 -9 -51 4 -9 9 -12 9 -12 0 0 -7 5 -12 10 -12 6 0 10 -4 10 -8
0 -4 -8 -8 -19 -8 -12 0 -17 5 -13 15 4 11 -1 13 -24 7 -19 -4 -24 -3 -15 2 9
7 10 12 2 16 -6 4 -11 2 -11 -4 0 -6 -4 -8 -10 -5 -6 4 -7 -1 -3 -12 6 -16 4
-16 -17 2 -16 14 -24 16 -27 8 -4 -10 -9 -10 -24 0 -16 10 -21 9 -28 -2 -6
-10 -13 -10 -29 -2 -15 8 -23 7 -32 -4 -7 -8 -20 -15 -29 -15 -13 0 -13 2 -2
9 11 7 11 10 0 17 -8 4 -14 3 -17 -5 -3 -9 -9 -8 -23 5 -11 10 -19 12 -19 6 0
-7 -7 -12 -15 -12 -8 0 -15 -5 -15 -11 0 -5 -5 -7 -12 -3 -9 6 -9 9 0 12 7 2
12 8 12 13 0 14 -27 11 -34 -3 -5 -10 -7 -10 -12 0 -8 17 -27 15 -21 -2 4 -10
0 -12 -14 -9 -10 3 -19 12 -19 19 0 8 -7 14 -16 14 -13 0 -14 -3 -5 -14 7 -9
8 -17 2 -20 -5 -3 -12 0 -14 6 -4 10 -8 9 -17 -2 -9 -12 -10 -10 -5 10 6 23 5
24 -8 7 -14 -17 -47 -14 -47 4 0 5 -5 9 -11 9 -6 0 -9 -6 -6 -14 3 -8 0 -17
-8 -20 -9 -3 -12 0 -8 10 3 8 -1 14 -10 14 -8 0 -17 6 -20 13 -2 6 -8 8 -13 4
-5 -4 -2 -12 6 -17 8 -5 11 -12 7 -16 -4 -4 -16 3 -27 16 -11 13 -21 20 -21
17 -1 -7 -4 -18 -8 -34 -2 -5 -6 1 -10 12 -5 12 -4 23 3 27 8 6 8 8 -1 8 -6 0
-19 -7 -28 -16 -15 -15 -17 -15 -35 1 -19 17 -21 17 -40 0 -20 -18 -21 -18
-15 1 6 18 6 18 -8 2 -15 -18 -33 -25 -23 -9 9 13 -36 22 -51 9 -9 -7 -13 -7
-13 1 0 6 -10 11 -21 11 -19 0 -20 -2 -8 -17 13 -16 12 -17 -3 -4 -15 11 -21
11 -35 0 -16 -13 -17 -12 -5 3 20 25 10 45 -11 24 -13 -13 -17 -14 -17 -4 0 8
-9 14 -20 14 -11 0 -20 -4 -20 -8 0 -14 -23 -8 -36 10 -7 9 -14 12 -14 6 0
-14 -80 -15 -80 -2 0 6 -11 7 -25 4 -20 -5 -23 -3 -19 11 4 12 0 10 -11 -5
-13 -18 -23 -22 -41 -18 -14 4 -24 2 -24 -4 0 -6 -5 -8 -11 -4 -8 5 -8 9 1 14
9 6 9 9 -1 16 -7 4 -14 3 -17 -4 -2 -7 -8 -10 -12 -7 -5 3 -6 13 -3 23 6 16 6
16 -11 0 -19 -20 -42 -23 -51 -8 -3 6 -12 10 -18 10 -8 0 -8 -3 2 -9 9 -6 10
-11 2 -15 -6 -4 -11 -3 -11 2 0 6 -11 13 -25 16 -14 4 -25 11 -25 16 0 6 -4
10 -10 10 -5 0 -10 -8 -10 -17 0 -15 -2 -16 -10 -3 -5 9 -5 19 0 25 7 8 5 12
-5 12 -8 0 -15 -5 -15 -11 0 -6 -7 -3 -14 7 -14 18 -14 17 -21 -2 -6 -18 -9
-19 -28 -9 -12 7 -26 14 -32 14 -5 1 -14 2 -19 3 -5 0 -4 7 2 14 11 13 128 17
149 4z m4068 -6 c3 -5 -14 -9 -40 -8 -25 1 -45 5 -45 10 0 10 78 9 85 -2z m35
-1 c0 -5 -4 -10 -10 -10 -5 0 -10 5 -10 10 0 6 5 10 10 10 6 0 10 -4 10 -10z
m-1120 -138 c3 -3 -5 -1 -17 2 -15 5 -23 3 -23 -4 0 -6 -4 -8 -10 -5 -6 4 -5
11 3 20 11 12 17 11 47 -13z m200 8 c0 -5 -4 -10 -10 -10 -5 0 -10 5 -10 10 0
6 5 10 10 10 6 0 10 -4 10 -10z m-640 -39 c0 -5 -7 -12 -16 -15 -14 -5 -15 -4
-4 9 14 17 20 19 20 6z"/>
<path d="M1486 4357 c3 -10 9 -15 12 -12 3 3 0 11 -7 18 -10 9 -11 8 -5 -6z"/>
<path d="M1620 4245 c1 -6 7 -21 16 -35 l15 -25 -7 25 c-7 26 -24 52 -24 35z"/>
<path d="M1560 4125 c0 -36 14 -42 38 -17 23 24 23 24 1 17 -14 -5 -25 -2 -30
6 -7 11 -9 9 -9 -6z"/>
<path d="M8543 4115 c-3 -9 -3 -18 -1 -21 3 -3 8 4 11 16 6 23 -1 27 -10 5z"/>
<path d="M1625 4090 c-3 -5 -1 -10 4 -10 6 0 11 5 11 10 0 6 -2 10 -4 10 -3 0
-8 -4 -11 -10z"/>
<path d="M8525 4070 c-3 -5 -1 -10 4 -10 6 0 11 5 11 10 0 6 -2 10 -4 10 -3 0
-8 -4 -11 -10z"/>
<path d="M5030 8820 l-45 -7 45 -1 c25 0 56 4 70 8 l25 8 -25 0 c-14 -1 -45
-4 -70 -8z"/>
<path d="M4916 8789 c-52 -12 -102 -51 -126 -99 -25 -48 -25 -50 0 -50 19 0
180 135 180 151 0 10 -1 10 -54 -2z"/>
<path d="M5195 8786 l-30 -13 23 -12 c13 -7 48 -16 78 -21 31 -5 81 -21 111
-35 38 -17 60 -22 67 -15 13 13 15 11 -89 45 -49 16 -96 37 -103 47 -15 21
-17 21 -57 4z"/>
<path d="M7138 7813 c7 -3 16 -2 19 1 4 3 -2 6 -13 5 -11 0 -14 -3 -6 -6z"/>
<path d="M7101 7624 c0 -11 3 -14 6 -6 3 7 2 16 -1 19 -3 4 -6 -2 -5 -13z"/>
<path d="M7110 7593 c0 -7 12 -25 28 -41 15 -15 20 -19 11 -7 -9 11 -21 29
-27 40 -6 11 -12 14 -12 8z"/>
<path d="M7190 7520 c0 -13 60 -13 80 0 11 7 2 10 -32 10 -27 0 -48 -4 -48
-10z"/>
<path d="M6775 7511 c-3 -5 -1 -12 5 -16 5 -3 10 1 10 9 0 18 -6 21 -15 7z"/>
<path d="M6817 7496 c-6 -15 -14 -17 -45 -12 -26 4 -31 3 -17 -4 11 -5 14 -9
7 -9 -7 -1 -22 4 -32 9 -16 9 -21 6 -26 -15 -3 -13 -4 -62 -2 -107 4 -102 28
-155 106 -239 66 -72 116 -102 202 -124 59 -15 72 -15 139 -1 98 21 196 67
242 116 54 57 102 160 107 230 4 58 4 58 -22 56 -14 -2 -33 -9 -43 -17 -14
-12 -16 -12 -8 0 6 11 2 13 -25 8 -28 -6 -31 -5 -26 11 3 9 -3 5 -15 -10 -11
-16 -28 -28 -37 -27 -14 0 -15 1 -2 7 8 4 16 13 18 21 3 12 0 12 -12 2 -8 -7
-20 -10 -25 -6 -7 3 -8 0 -5 -9 8 -21 -13 -20 -24 1 -6 10 -16 14 -26 10 -9
-4 -16 -2 -16 3 0 6 -7 10 -15 10 -19 0 -19 -14 -1 -30 21 -17 80 -110 73
-116 -2 -3 -35 9 -73 26 -37 17 -74 28 -82 25 -7 -2 -25 -32 -41 -65 l-27 -60
-23 72 c-13 40 -29 84 -36 98 -12 24 -61 54 -127 79 -39 15 -35 25 17 40 25 7
43 17 40 21 -3 5 -18 2 -33 -6 -33 -17 -55 -18 -47 -1 4 6 0 4 -9 -6 -14 -18
-15 -17 -18 10 -2 23 -4 25 -11 9z m588 -125 c3 -5 2 -12 -3 -15 -5 -3 -9 1
-9 9 0 17 3 19 12 6z m85 5 c0 -2 -7 -7 -16 -10 -8 -3 -12 -2 -9 4 6 10 25 14
25 6z"/>
<path d="M7523 7463 c9 -2 23 -2 30 0 6 3 -1 5 -18 5 -16 0 -22 -2 -12 -5z"/>
<path d="M7706 7422 c-3 -5 1 -9 9 -9 8 0 12 4 9 9 -3 4 -7 8 -9 8 -2 0 -6 -4
-9 -8z"/>
<path d="M3726 7891 c-4 -7 -5 -15 -2 -18 9 -9 19 4 14 18 -4 11 -6 11 -12 0z"/>
<path d="M3780 7880 c0 -5 5 -10 11 -10 5 0 7 5 4 10 -3 6 -8 10 -11 10 -2 0
-4 -4 -4 -10z"/>
<path d="M3425 7843 c11 -3 27 -10 35 -17 13 -10 13 -9 1 7 -7 9 -23 16 -35
16 -20 -1 -20 -2 -1 -6z"/>
<path d="M5050 6049 c-73 -29 -137 -139 -123 -212 16 -83 86 -159 159 -173 37
-7 94 9 140 40 101 66 112 219 22 303 -50 47 -138 65 -198 42z"/>
<path d="M4535 5230 c-4 -6 -13 -9 -21 -6 -22 8 -17 -8 7 -22 14 -9 19 -10 14
-2 -4 7 -1 16 6 21 7 4 11 11 7 14 -3 4 -9 1 -13 -5z"/>
<path d="M4456 5221 c-4 -5 3 -7 14 -4 23 6 26 13 6 13 -8 0 -17 -4 -20 -9z"/>
<path d="M5110 5040 c0 -5 5 -10 10 -10 6 0 10 5 10 10 0 6 -4 10 -10 10 -5 0
-10 -4 -10 -10z"/>
<path d="M5237 4990 c-3 -11 -1 -23 4 -26 5 -3 9 6 9 20 0 31 -6 34 -13 6z"/>
<path d="M5190 4992 c0 -5 7 -13 16 -16 10 -4 14 -1 12 6 -5 15 -28 23 -28 10z"/>
<path d="M5395 4940 c-3 -5 -1 -10 4 -10 6 0 11 5 11 10 0 6 -2 10 -4 10 -3 0
-8 -4 -11 -10z"/>
<path d="M4342 4840 c22 -40 36 -46 33 -13 -4 33 -17 53 -36 53 -17 0 -17 -2
3 -40z m23 10 c3 -5 1 -10 -4 -10 -6 0 -11 5 -11 10 0 6 2 10 4 10 3 0 8 -4
11 -10z"/>
<path d="M5570 4862 c0 -4 9 -13 20 -20 23 -14 26 -7 6 14 -16 15 -26 18 -26
6z"/>
<path d="M5590 4799 c0 -5 4 -8 9 -4 5 3 16 -2 24 -10 23 -22 33 -18 12 5 -19
21 -45 27 -45 9z"/>
<path d="M5636 4741 c-4 -7 -5 -15 -2 -18 9 -9 19 4 14 18 -4 11 -6 11 -12 0z"/>
<path d="M5726 4603 c-6 -14 -5 -15 5 -6 7 7 10 15 7 18 -3 3 -9 -2 -12 -12z"/>
<path d="M5704 4555 c-9 -13 -14 -30 -11 -37 4 -8 6 -6 6 5 1 9 6 17 13 17 6
0 8 3 5 7 -4 3 -2 12 4 20 6 7 9 13 5 13 -3 0 -13 -11 -22 -25z"/>
<path d="M7876 6465 c4 -8 11 -15 16 -15 6 0 5 6 -2 15 -7 8 -14 15 -16 15 -2
0 -1 -7 2 -15z"/>
<path d="M8007 6249 c4 -13 8 -18 11 -10 2 7 -1 18 -6 23 -8 8 -9 4 -5 -13z"/>
<path d="M8050 5730 c0 -6 12 -10 26 -10 14 0 50 -11 81 -25 30 -14 58 -24 60
-21 7 7 -94 51 -134 59 -19 4 -33 2 -33 -3z"/>
<path d="M7345 5710 l-30 -8 27 -1 c15 0 30 4 33 9 3 6 5 9 3 9 -2 -1 -16 -5
-33 -9z"/>
<path d="M7948 5694 c-18 -9 -32 -28 -39 -54 -7 -22 -15 -40 -18 -40 -4 0 -15
16 -25 35 -15 28 -25 35 -49 35 -54 0 -153 -75 -210 -160 -19 -28 -24 -130 -6
-130 17 0 161 51 202 72 l39 19 -7 50 c-7 46 -6 49 20 59 37 14 45 13 45 -10
0 -11 7 -38 16 -60 17 -41 17 -41 58 -34 99 16 189 49 209 76 20 26 20 26 -2
57 -45 63 -105 90 -146 64 -22 -13 -67 -14 -59 -1 3 4 -3 8 -12 8 -28 0 -7 12
33 20 35 7 35 8 8 8 -16 1 -42 -5 -57 -14z"/>
<path d="M7940 5287 c-31 -25 -70 -79 -70 -97 0 -27 77 -69 138 -77 45 -5 53
-3 76 20 14 14 26 31 26 37 0 16 -80 100 -111 116 -33 17 -40 17 -59 1z"/>
<path d="M7716 4981 c-6 -10 31 -51 46 -51 15 0 8 16 -16 39 -14 13 -26 18
-30 12z"/>
<path d="M3885 3830 c10 -11 20 -20 23 -20 3 0 -3 9 -13 20 -10 11 -20 20 -23
20 -3 0 3 -9 13 -20z"/>
<path d="M3954 3771 c7 -11 46 -35 46 -28 0 3 -12 12 -26 22 -15 9 -23 12 -20
6z"/>
<path d="M4087 3669 c6 -8 26 -22 45 -32 l33 -19 -25 21 c-14 12 -34 27 -45
33 -17 9 -18 9 -8 -3z"/>
<path d="M4210 3596 c0 -3 9 -10 20 -16 11 -6 20 -8 20 -6 0 3 -9 10 -20 16
-11 6 -20 8 -20 6z"/>
<path d="M6429 3903 l-24 -28 28 24 c15 14 27 26 27 28 0 8 -8 1 -31 -24z"/>
<path d="M5318 3673 c12 -2 30 -2 40 0 9 3 -1 5 -23 4 -22 0 -30 -2 -17 -4z"/>
<path d="M5238 3663 c7 -3 16 -2 19 1 4 3 -2 6 -13 5 -11 0 -14 -3 -6 -6z"/>
<path d="M4983 3618 c-15 -20 -25 -38 -20 -38 3 0 12 11 21 25 17 26 16 35 -1
13z"/>
<path d="M4913 3543 c9 -2 23 -2 30 0 6 3 -1 5 -18 5 -16 0 -22 -2 -12 -5z"/>
<path d="M2307 6159 c7 -7 15 -10 18 -7 3 3 -2 9 -12 12 -14 6 -15 5 -6 -5z"/>
<path d="M2480 6149 c0 -5 5 -7 10 -4 6 3 10 8 10 11 0 2 -4 4 -10 4 -5 0 -10
-5 -10 -11z"/>
<path d="M2080 5979 c0 -5 5 -7 10 -4 6 3 10 8 10 11 0 2 -4 4 -10 4 -5 0 -10
-5 -10 -11z"/>
<path d="M2502 5802 c8 -10 14 -10 27 0 9 7 17 13 19 14 1 1 -11 1 -27 0 -22
-1 -27 -4 -19 -14z"/>
<path d="M2590 5799 c0 -5 5 -7 10 -4 6 3 10 8 10 11 0 2 -4 4 -10 4 -5 0 -10
-5 -10 -11z"/>
<path d="M2180 5717 c-126 -37 -220 -118 -261 -225 -30 -79 -31 -215 -2 -290
43 -109 154 -214 256 -244 59 -17 151 -14 223 6 73 21 165 87 204 147 65 98
92 259 62 366 -27 93 -120 184 -231 227 -59 23 -193 30 -251 13z m170 -382 l0
-246 -50 3 -50 3 -1 145 c-1 161 -10 252 -22 233 -11 -18 -51 -17 -44 1 3 7 9
34 12 60 l7 46 74 0 74 0 0 -245z"/>
<path d="M2575 5050 c-3 -5 -1 -10 4 -10 6 0 11 5 11 10 0 6 -2 10 -4 10 -3 0
-8 -4 -11 -10z"/>
<path d="M3000 3798 c0 -4 9 -8 20 -8 11 0 20 4 20 8 0 4 -9 8 -20 8 -11 0
-20 -4 -20 -8z"/>
<path d="M6755 3491 c-54 -80 -72 -246 -39 -348 20 -62 89 -155 151 -205 94
-75 241 -97 362 -53 60 21 144 86 186 143 55 75 76 142 77 247 1 77 -3 98 -26
149 -26 58 -47 75 -27 22 12 -30 9 -32 -13 -10 -9 8 -16 12 -16 7 0 -9 -52 -9
-67 0 -6 4 -13 3 -17 0 -14 -14 -46 -9 -46 6 0 14 -2 14 -10 1 -7 -12 -11 -10
-19 10 -9 21 -10 17 -5 -21 11 -88 -7 -124 -113 -225 -94 -90 -95 -91 -67 -97
16 -3 61 -3 101 0 l73 6 0 -46 0 -45 -147 -4 c-82 -2 -150 -3 -152 -1 -2 1 2
24 9 50 11 38 30 66 95 133 89 92 105 115 105 154 0 35 -25 56 -66 56 -35 0
-44 -6 -92 -69 -13 -17 -24 -22 -36 -18 -16 6 -17 17 -12 80 4 57 3 65 -5 40
-10 -35 -25 -47 -16 -14 3 14 1 18 -9 14 -8 -3 -11 -9 -8 -14 3 -5 -2 -6 -10
-3 -9 3 -14 10 -11 14 6 10 -33 22 -67 20 -17 -1 -28 4 -28 12 -1 8 -6 6 -15
-6 -19 -26 -19 -13 0 24 22 42 10 37 -20 -9z"/>
<path d="M5094 2780 c-15 -27 -30 -50 -34 -50 -4 0 -21 18 -38 39 l-32 39 -54
-12 c-31 -8 -59 -9 -64 -4 -4 4 -25 -1 -48 -12 -36 -19 -30 -20 29 -4 9 3 17
0 17 -6 0 -6 4 -8 10 -5 5 3 30 9 55 12 36 4 50 1 66 -13 11 -10 17 -24 15
-31 -3 -7 0 -12 6 -10 7 1 30 -31 51 -70 34 -62 44 -73 66 -73 33 1 174 68
145 69 -12 1 -31 14 -44 31 -18 24 -28 29 -49 24 -14 -4 -29 -10 -33 -13 -15
-13 -78 0 -78 16 0 23 38 79 68 102 l27 20 -27 1 c-22 0 -32 -9 -54 -50z"/>
<path d="M5270 2815 c0 -4 11 -16 25 -26 13 -11 34 -33 46 -50 l21 -30 -28
-32 c-28 -30 -8 -19 28 16 25 23 23 28 -19 68 -49 45 -73 63 -73 54z"/>
<path d="M5489 2773 c11 -23 26 -45 33 -49 6 -4 1 10 -12 32 -33 56 -46 66
-21 17z"/>
<path d="M4807 2703 c-20 -16 -39 -39 -42 -53 -4 -14 -13 -50 -21 -81 -8 -30
-14 -74 -14 -96 l0 -41 78 18 c81 18 151 44 190 68 20 13 22 21 21 105 -1 66
-4 86 -11 73 -5 -9 -7 -20 -4 -23 3 -3 1 -13 -4 -23 -8 -14 -16 -16 -57 -8
-26 5 -70 13 -98 17 -27 5 -40 9 -27 10 12 0 22 5 22 11 0 5 -8 7 -17 3 -14
-5 -12 0 6 20 31 34 24 34 -22 0z"/>
<path d="M4965 2669 c-4 -6 -5 -12 -2 -15 2 -3 7 2 10 11 7 17 1 20 -8 4z"/>
<path d="M3120 859 c0 -5 5 -7 10 -4 6 3 10 8 10 11 0 2 -4 4 -10 4 -5 0 -10
-5 -10 -11z"/>
<path d="M6786 851 c-4 -7 -5 -15 -2 -18 9 -9 19 4 14 18 -4 11 -6 11 -12 0z"/>
<path d="M6890 850 c0 -5 5 -10 11 -10 5 0 7 5 4 10 -3 6 -8 10 -11 10 -2 0
-4 -4 -4 -10z"/>
<path d="M3135 840 c-3 -5 -1 -10 4 -10 6 0 11 5 11 10 0 6 -2 10 -4 10 -3 0
-8 -4 -11 -10z"/>
<path d="M3195 830 c3 -5 10 -10 16 -10 5 0 9 5 9 10 0 6 -7 10 -16 10 -8 0
-12 -4 -9 -10z"/>
<path d="M3310 814 c0 -8 5 -12 10 -9 6 4 8 11 5 16 -9 14 -15 11 -15 -7z"/>
<path d="M6528 813 c7 -3 16 -2 19 1 4 3 -2 6 -13 5 -11 0 -14 -3 -6 -6z"/>
<path d="M5225 720 c3 -5 8 -10 11 -10 2 0 4 5 4 10 0 6 -5 10 -11 10 -5 0 -7
-4 -4 -10z"/>
<path d="M5680 720 c0 -5 5 -10 10 -10 6 0 10 5 10 10 0 6 -4 10 -10 10 -5 0
-10 -4 -10 -10z"/>
<path d="M4885 710 c-3 -5 3 -10 15 -10 12 0 18 5 15 10 -3 6 -10 10 -15 10
-5 0 -12 -4 -15 -10z"/>
</g>
</svg>
